<svg width="20" height="20" viewBox="0 0 20 20" fill="none" xmlns="http://www.w3.org/2000/svg">
<path d="M6.7141 16.6667H13.2731C14.596 16.6667 15.2789 15.9714 15.2789 14.6362V5.35764C15.2789 4.02861 14.596 3.33334 13.2731 3.33334H6.7141C5.39738 3.33334 4.70825 4.02861 4.70825 5.35764V14.6362C4.70825 15.9714 5.39738 16.6667 6.7141 16.6667ZM6.8187 15.4361C6.22802 15.4361 5.93268 15.1284 5.93268 14.5562V5.43763C5.93268 4.87771 6.22802 4.55776 6.82485 4.55776H13.1623C13.7592 4.55776 14.0545 4.87156 14.0545 5.43763V14.5562C14.0545 15.1284 13.7592 15.4361 13.1685 15.4361H6.8187ZM7.75394 7.0866H12.2394C12.4671 7.0866 12.6332 6.90817 12.6332 6.68667C12.6332 6.47131 12.4671 6.30519 12.2394 6.30519H7.75394C7.52628 6.30519 7.354 6.47131 7.354 6.68667C7.354 6.90817 7.52628 7.0866 7.75394 7.0866ZM7.75394 9.18474H12.2394C12.4671 9.18474 12.6332 9.00631 12.6332 8.7848C12.6332 8.56945 12.4671 8.40333 12.2394 8.40333H7.75394C7.52628 8.40333 7.354 8.56945 7.354 8.7848C7.354 9.00631 7.52628 9.18474 7.75394 9.18474ZM7.75394 11.2829H9.93206C10.1536 11.2829 10.3197 11.1106 10.3197 10.8952C10.3197 10.6737 10.1536 10.5015 9.93206 10.5015H7.75394C7.52628 10.5015 7.354 10.6737 7.354 10.8952C7.354 11.1106 7.52628 11.2829 7.75394 11.2829Z" fill="#2D3540"/>
</svg>
